 <svg version="1.0" xmlns="http://www.w3.org/2000/svg" width="384.000000pt" height="384.000000pt" viewBox="0 0 384.000000 384.000000" preserveAspectRatio="xMidYMid meet">  <g transform="translate(0.000000,384.000000) scale(0.050000,-0.050000)" fill="#6114f0" stroke="none"> <path d="M3900 7596 c0 -3 -27 -86 -60 -184 -70 -208 -73 -267 -22 -415 50 -146 67 -288 46 -397 l-16 -90 -34 64 c-42 79 -43 108 -4 93 70 -27 5 202 -149 523 l-58 120 -1 -90 c-2 -203 37 -383 126 -580 l89 -196 6 -348 7 -349 -181 182 c-194 195 -668 522 -601 415 7 -13 -73 8 -178 47 -217 78 -270 87 -229 38 48 -57 142 -92 323 -120 99 -14 202 -41 229 -59 56 -37 51 -64 -6 -34 -53 28 -310 70 -357 59 -73 -17 138 -95 308 -115 87 -10 188 -31 225 -46 70 -30 180 -134 142 -134 -13 0 -28 9 -35 20 -30 49 -315 141 -345 112 -36 -36 217 -172 320 -172 285 0 419 -374 351 -977 -27 -238 -198 -402 -513 -494 -133 -39 -121 -58 25 -40 71 9 141 34 195 71 109 73 124 60 37 -30 -68 -70 -71 -124 -4 -63 55 49 73 40 35 -19 -42 -63 -20 -94 26 -37 18 23 57 73 87 110 l54 69 1 -53 c1 -30 19 -95 41 -146 22 -51 37 -99 35 -107 -3 -8 4 -18 15 -24 34 -17 34 93 0 192 -44 132 -7 162 48 38 23 -52 42 -107 42 -121 0 -42 39 -55 53 -18 7 18 -2 64 -21 103 -63 132 -7 113 88 -29 61 -92 63 -93 60 -35 -6 90 -3 97 30 70 17 -14 35 -21 40 -16 26 26 -209 157 -301 168 -155 18 -161 22 -114 74 23 24 55 78 73 120 38 94 48 89 123 -65 48 -100 84 -141 196 -223 147 -107 197 -116 103 -18 -70 73 -63 74 73 10 59 -27 139 -50 177 -50 61 0 40 15 -160 111 -347 168 -379 213 -395 548 -17 365 83 533 386 647 259 97 276 93 139 -32 -116 -107 -135 -151 -53 -125 22 7 95 62 162 122 108 96 161 129 161 100 0 -5 -45 -60 -100 -123 -162 -186 -80 -173 156 24 84 70 160 128 169 128 35 0 8 -37 -129 -175 -87 -87 -132 -145 -113 -145 50 0 256 146 367 260 l100 103 -235 -7 c-129 -3 -235 0 -235 8 0 13 128 56 168 56 10 0 91 48 180 107 89 59 203 133 252 164 149 95 46 81 -183 -24 -114 -53 -255 -130 -314 -173 -131 -96 -270 -159 -329 -150 -37 6 -30 15 46 54 133 70 375 240 388 274 7 19 27 25 57 18 46 -12 396 144 424 188 26 42 -181 -32 -576 -206 -112 -50 -72 -6 103 112 388 260 507 396 179 203 -264 -154 -455 -310 -593 -483 -114 -143 -245 -244 -314 -244 -9 0 68 86 172 190 212 213 213 220 17 117 -156 -82 -225 -154 -209 -218 12 -45 -250 -332 -265 -289 -14 42 264 507 350 584 21 18 94 43 164 54 146 23 242 75 493 264 354 267 383 327 58 122 -120 -75 -267 -157 -328 -182 -60 -25 -157 -72 -215 -104 -112 -62 -135 -70 -114 -37 21 35 159 114 288 167 120 49 321 196 321 235 0 21 -165 -66 -316 -166 -131 -87 -141 -62 -37 93 110 165 244 426 227 443 -35 35 -228 -251 -303 -450 -45 -118 -84 -177 -202 -303 -130 -138 -229 -274 -366 -500 l-42 -70 -1 362 c0 422 3 433 171 679 81 120 142 238 178 345 61 185 58 264 -6 119 -23 -52 -91 -171 -152 -263 -61 -93 -128 -207 -148 -255 l-36 -86 -3 199 c-2 123 8 235 26 290 43 138 35 482 -12 511 -10 6 -18 9 -18 5z m-17 -478 l-19 -68 -2 89 c-1 63 4 83 19 68 15 -15 15 -43 2 -89z"></path> <path d="M4107 7337 c-75 -92 -153 -295 -161 -417 -10 -148 11 -140 105 42 72 141 118 453 56 375z"></path> <path d="M3440 7249 c0 -22 18 -102 40 -179 60 -211 47 -218 -51 -25 -127 248 -148 218 -38 -55 197 -491 324 -789 332 -780 22 22 -27 260 -133 640 -105 374 -150 494 -150 399z"></path> <path d="M4571 7147 c-216 -273 -431 -696 -464 -914 -17 -115 13 -78 98 122 39 91 163 327 275 526 217 381 243 458 91 266z"></path> <path d="M3100 7202 c0 -54 405 -811 472 -881 62 -65 25 38 -109 302 -219 431 -363 661 -363 579z"></path> <path d="M2981 7118 c-2 -72 358 -610 375 -560 4 13 -56 124 -134 248 -165 261 -240 359 -241 312z"></path> <path d="M4211 6830 c-163 -245 -241 -459 -227 -624 6 -72 9 -68 60 84 66 196 194 478 287 631 73 121 80 139 50 139 -10 0 -87 -103 -170 -230z"></path> <path d="M4968 6907 c-138 -93 -183 -135 -287 -265 -55 -70 -101 -131 -101 -135 0 -8 100 46 255 138 56 33 245 266 245 303 0 24 -36 11 -112 -41z"></path> <path d="M2900 6918 c0 -54 543 -638 557 -598 8 24 -82 137 -314 395 -154 170 -243 244 -243 203z"></path> <path d="M2480 6903 c0 -73 352 -423 426 -423 34 0 -40 98 -184 242 -148 148 -242 218 -242 181z"></path> <path d="M2800 6864 c0 -15 179 -193 245 -243 72 -53 31 6 -88 131 -116 120 -157 150 -157 112z"></path> <path d="M4445 6686 c-116 -146 -228 -421 -162 -396 42 17 110 127 177 289 74 180 69 214 -15 107z"></path> <path d="M2800 6725 c0 -25 166 -247 227 -303 88 -81 69 14 -26 134 -78 99 -201 202 -201 169z"></path> <path d="M2440 6705 c0 -46 225 -201 370 -255 234 -88 230 -81 -40 79 -331 196 -330 196 -330 176z"></path> <path d="M3114 6459 c96 -175 320 -341 234 -174 -37 70 -237 275 -270 275 -11 0 5 -46 36 -101z"></path> <path d="M2261 6351 c54 -53 798 -352 873 -350 105 1 -279 189 -615 300 -262 87 -304 95 -258 50z"></path> <path d="M3480 6242 c0 -53 103 -222 135 -222 40 0 29 109 -17 167 -62 79 -118 105 -118 55z"></path> <path d="M2281 6172 c80 -75 867 -334 829 -271 -25 40 -174 100 -492 198 -351 109 -382 116 -337 73z"></path> <path d="M2191 6021 c-12 -19 143 -73 345 -121 58 -13 103 -28 99 -32 -14 -14 -107 -25 -224 -27 -216 -2 -92 -45 172 -59 l247 -13 -90 -41 c-100 -46 -298 -216 -277 -238 26 -26 97 13 261 142 151 119 243 168 268 143 5 -6 -31 -34 -80 -63 -86 -50 -202 -173 -250 -267 -49 -94 30 -44 198 127 94 94 186 180 205 190 47 26 46 -11 -1 -46 -53 -39 -292 -355 -278 -369 21 -20 273 217 325 307 52 89 113 131 224 155 137 30 92 55 -68 38 -234 -25 -301 -18 -476 53 -87 35 -253 81 -368 102 -247 45 -218 42 -232 19z"></path> <path d="M5275 6018 c-90 -21 -226 -88 -247 -121 -26 -42 182 -6 301 51 164 81 138 116 -54 70z"></path> <path d="M5469 5921 c-163 -58 -211 -90 -358 -239 -204 -207 -103 -202 149 7 61 50 157 123 215 162 80 54 142 120 100 108 -3 -1 -50 -18 -106 -38z"></path> <path d="M3214 5655 c-34 -50 -96 -122 -216 -249 -80 -86 -97 -126 -53 -126 56 1 218 192 302 355 39 74 14 88 -33 20z"></path> <path d="M3224 5484 c-142 -196 -194 -304 -146 -304 17 0 202 282 260 395 48 94 -18 40 -114 -91z"></path> <path d="M5413 5514 c-97 -166 -193 -382 -193 -433 0 -67 33 -14 167 275 102 218 118 314 26 158z"></path> <path d="M4120 5497 c-83 -114 -144 -234 -134 -263 4 -13 23 8 43 46 19 39 67 117 106 175 87 128 73 164 -15 42z"></path> <path d="M3397 5496 c-121 -163 -233 -404 -196 -426 18 -12 269 467 253 483 -5 4 -30 -21 -57 -57z"></path> <path d="M2192 5416 c16 -69 47 -188 68 -265 51 -183 42 -183 -72 1 -53 85 -99 144 -103 132 -10 -30 48 -139 125 -234 76 -94 150 -212 150 -240 0 -10 -53 39 -118 110 -65 72 -123 125 -130 118 -7 -6 46 -74 119 -150 72 -76 150 -169 173 -208 51 -83 49 -82 -148 114 -253 251 -199 151 68 -126 247 -257 243 -279 -9 -48 l-135 123 13 -91 c14 -106 -21 -129 -41 -27 -19 95 -116 335 -135 335 -25 0 -7 -60 73 -250 l34 -80 -72 69 c-77 73 -126 70 -58 -4 23 -25 57 -79 76 -121 20 -42 65 -104 102 -138 36 -35 76 -88 89 -118 12 -30 35 -60 50 -65 14 -6 37 -30 49 -53 16 -29 -29 -8 -149 72 -94 63 -177 108 -185 101 -19 -19 17 -51 163 -143 397 -251 412 -266 242 -249 -151 16 -154 18 -232 130 -33 49 -70 89 -80 89 -23 0 30 -112 78 -167 31 -35 29 -36 -47 -24 l-80 13 96 -51 c67 -35 128 -51 199 -51 56 0 157 -10 225 -21 67 -12 158 -19 201 -15 l79 6 -110 58 c-60 32 -139 90 -175 129 -36 39 -65 59 -65 44 0 -15 36 -62 81 -104 44 -42 71 -77 60 -77 -46 0 -176 156 -189 227 -8 40 -22 73 -32 73 -10 0 -14 -16 -7 -35 16 -49 -89 74 -116 135 -45 102 -97 250 -97 275 0 14 62 -27 138 -90 76 -63 165 -131 199 -151 l62 -36 -12 66 c-6 36 -25 77 -41 90 -38 29 -31 40 141 231 180 201 157 228 -29 33 -124 -129 -139 -140 -126 -88 8 33 16 83 18 112 2 29 26 83 54 120 70 94 102 158 78 158 -35 0 -185 -226 -160 -241 16 -10 16 -25 -1 -56 -12 -24 -23 -74 -25 -113 -3 -74 -23 -92 -44 -38 -20 52 -14 93 21 132 41 44 21 72 -25 35 -38 -32 -86 16 -91 90 -6 103 -1 207 13 279 11 53 9 74 -5 65 -11 -7 -27 -46 -35 -88 -14 -71 -18 -62 -78 163 -66 253 -133 360 -80 128z m8 -899 c0 -8 5 -30 12 -50 8 -26 -4 -20 -40 19 -62 67 -68 104 -12 69 22 -13 40 -31 40 -38z"></path> <path d="M3492 5471 c-38 -59 -192 -404 -192 -432 0 -80 65 22 145 225 96 243 109 301 47 207z"></path> <path d="M4564 5460 c-42 -40 -223 -378 -253 -475 -33 -107 32 -31 120 140 53 102 117 219 143 261 58 92 53 132 -10 74z"></path> <path d="M4784 5425 c-100 -128 -170 -285 -126 -285 17 0 176 251 206 325 25 60 -18 38 -80 -40z"></path> <path d="M4227 5335 c-94 -126 -97 -126 -39 10 18 41 24 75 14 75 -26 0 -94 -188 -111 -307 -20 -140 20 -116 119 70 44 83 96 172 115 198 40 54 44 79 15 79 -11 0 -62 -56 -113 -125z"></path> <path d="M4385 5361 c-73 -93 -209 -358 -201 -395 8 -43 30 -11 175 259 103 192 114 247 26 136z"></path> <path d="M4900 5370 c-15 -27 -21 -56 -14 -63 19 -18 68 27 80 74 15 57 -34 49 -66 -11z"></path> <path d="M3566 5370 c-36 -66 -106 -311 -106 -366 0 -90 35 -24 91 171 51 180 59 278 15 195z"></path> <path d="M3675 5350 c-16 -49 -55 -267 -55 -305 0 -74 39 11 61 130 25 140 21 259 -6 175z"></path> <path d="M4594 5316 c-65 -87 -120 -197 -105 -211 6 -7 13 -8 16 -3 3 4 24 35 47 68 105 151 143 280 42 146z"></path> <path d="M5203 5291 c-44 -94 -60 -333 -26 -387 18 -27 64 3 208 134 104 95 94 121 -12 33 -48 -39 -94 -71 -103 -71 -9 0 -28 -16 -42 -35 -41 -54 -37 211 5 315 45 113 21 121 -30 11z"></path> <path d="M5416 5265 c-51 -58 -140 -208 -129 -218 14 -15 173 192 173 225 0 36 -7 35 -44 -7z"></path> <path d="M5073 5235 c-21 -75 -15 -176 17 -304 29 -113 28 -129 -7 -231 l-37 -110 -96 190 c-113 224 -145 213 -40 -14 40 -86 76 -196 81 -246 7 -63 4 -78 -8 -50 -13 29 -18 9 -20 -77 -4 -245 -35 -249 -122 -18 -67 179 -101 239 -101 180 0 -45 98 -314 136 -372 28 -43 28 -53 -6 -115 -41 -77 -70 -88 -70 -25 0 50 -116 399 -142 426 -27 28 -22 -28 11 -138 27 -91 27 -94 -10 -83 -22 7 -59 18 -84 25 -27 8 -3 -20 61 -71 106 -85 145 -147 142 -228 -1 -38 -5 -36 -29 16 -32 71 -37 30 -9 -72 l20 -73 76 76 c79 79 157 108 344 127 l110 12 -140 -50 c-265 -94 -310 -113 -310 -134 0 -36 143 3 310 85 182 89 540 315 524 331 -17 18 -184 -48 -179 -70 7 -32 -47 -53 -255 -100 -104 -24 -226 -57 -270 -74 -176 -68 37 61 360 218 119 57 222 126 300 200 151 142 119 147 -55 9 -72 -58 -162 -121 -198 -142 l-67 -36 52 46 c29 26 94 81 145 123 51 42 93 90 93 107 0 20 -42 -5 -118 -71 -64 -56 -122 -102 -128 -102 -21 0 107 235 148 272 66 60 124 148 97 148 -33 0 -360 -322 -348 -342 6 -9 -7 -25 -28 -36 -20 -11 -76 -52 -123 -92 -106 -89 -106 -89 -62 81 45 174 85 253 194 378 96 110 101 150 8 61 -33 -31 -63 -53 -68 -49 -31 32 -73 278 -62 362 14 99 -14 138 -37 52z m224 -870 c-26 -41 -44 -86 -41 -100 3 -14 -5 -25 -18 -25 -34 0 -7 111 46 185 60 84 71 34 13 -60z m-115 -52 c-49 -79 -191 -213 -225 -213 -26 0 8 44 151 195 111 116 139 123 74 18z"></path> <path d="M2477 5178 c-17 -27 -47 -79 -67 -118 -47 -91 7 -51 71 52 48 77 44 139 -4 66z"></path> <path d="M5469 5057 c-129 -250 -200 -376 -246 -434 -189 -241 -203 -308 -20 -101 136 156 178 224 256 422 65 165 71 232 10 113z"></path> <path d="M2495 4940 c-17 -38 -37 -92 -45 -120 -25 -81 43 -12 71 72 31 95 10 134 -26 48z"></path> <path d="M5020 4749 c0 -43 8 -66 20 -59 11 7 20 39 20 71 0 33 -9 59 -20 59 -11 0 -20 -32 -20 -71z"></path> <path d="M2821 4600 c-99 -190 -128 -210 -66 -45 5 14 -1 25 -12 25 -12 0 -28 -22 -34 -49 -7 -27 -23 -44 -38 -39 -17 7 -25 -16 -28 -73 -3 -98 -17 -126 -55 -111 -40 15 -37 11 60 -85 l89 -86 -11 78 c-9 65 7 112 102 301 119 238 122 244 94 244 -10 0 -55 -72 -101 -160z"></path> <path d="M4873 4619 c-15 -94 16 -290 48 -310 18 -11 8 159 -20 321 l-14 80 -14 -91z"></path> <path d="M2355 4430 c25 -48 536 -550 559 -550 18 0 93 240 79 254 -5 5 -31 -37 -56 -92 -56 -123 -61 -124 -106 -23 l-36 79 84 153 c67 122 105 261 41 149 -48 -84 -79 -113 -66 -62 8 32 5 44 -9 35 -12 -7 -33 -58 -47 -114 -42 -163 -57 -163 -233 4 -198 190 -240 223 -210 167z"></path> <path d="M3077 4275 c-26 -48 -97 -380 -85 -393 13 -14 234 166 245 198 8 26 5 26 -24 3 -18 -16 -33 -19 -33 -8 0 11 14 31 30 45 17 14 30 34 30 46 0 36 -82 -53 -111 -121 -15 -36 -36 -65 -48 -65 -30 0 -28 7 49 160 73 145 67 189 -10 75 -24 -36 -38 -48 -32 -28 42 129 36 176 -11 88z"></path> <path d="M932 4237 c-462 -105 -445 -598 29 -879 236 -140 319 -230 319 -346 0 -260 -327 -305 -578 -80 l-102 92 0 -153 0 -153 133 -62 c422 -198 822 18 781 421 -17 164 -85 247 -345 418 -280 185 -329 238 -329 354 0 205 289 263 510 102 113 -82 110 -84 110 59 l0 132 -114 52 c-123 57 -281 73 -414 43z"></path> <path d="M1960 4238 c0 -31 160 -205 175 -190 12 13 -58 109 -123 170 -36 34 -52 40 -52 20z"></path> <path d="M4569 4127 c95 -125 76 -132 -53 -19 -112 98 -157 119 -109 50 17 -24 26 -54 20 -68 -15 -38 73 -230 105 -230 39 0 36 13 -26 118 -59 101 -66 103 116 -34 48 -37 90 -58 94 -47 9 28 -85 202 -144 268 -79 87 -81 64 -3 -38z"></path> <path d="M3496 4038 c-62 -65 -125 -118 -140 -118 -14 0 13 37 60 83 47 45 81 87 75 93 -7 6 -43 -19 -81 -56 -75 -73 -90 -69 -37 11 18 28 27 55 21 61 -6 6 -26 -14 -45 -45 -20 -31 -72 -92 -117 -134 -45 -42 -66 -71 -45 -65 20 7 70 12 112 12 89 0 216 78 290 179 107 144 56 132 -93 -21z"></path> <path d="M4160 4119 c0 -41 145 -253 154 -226 4 12 -21 66 -56 120 -83 126 -98 142 -98 106z"></path> <path d="M3634 3989 c-42 -29 -102 -61 -135 -72 -32 -12 -59 -30 -59 -40 0 -41 206 52 268 121 52 57 17 53 -74 -9z"></path> <path d="M4100 3991 c0 -35 154 -144 175 -123 13 13 -69 92 -140 133 -27 16 -35 13 -35 -10z"></path> <path d="M3103 3919 c-37 -23 -63 -46 -57 -52 15 -15 134 50 134 74 0 25 1 25 -77 -22z"></path> <path d="M4271 3670 c-467 -166 -453 -902 21 -1064 131 -44 349 -27 478 37 l100 50 6 116 6 116 -54 -43 c-245 -193 -622 -97 -678 173 l-13 65 381 0 382 0 0 66 c0 348 -320 594 -629 484z m301 -199 c57 -38 99 -101 116 -176 l13 -55 -283 0 c-249 0 -281 4 -270 32 7 17 12 39 12 48 0 136 279 238 412 151z"></path> <path d="M5541 3668 c-38 -16 -100 -53 -138 -82 l-69 -53 12 74 11 73 -108 0 -109 0 0 -540 0 -540 107 0 108 0 -11 369 c-11 419 -6 439 135 511 269 137 351 19 351 -505 l0 -375 105 0 105 0 0 375 c0 389 -15 494 -85 592 -82 116 -274 162 -414 101z"></path> <path d="M6448 3669 c-122 -45 -162 -99 -172 -234 -10 -120 3 -141 48 -78 144 201 447 178 486 -38 l13 -70 -147 -47 c-304 -98 -416 -195 -416 -363 0 -220 225 -326 448 -212 l98 51 38 -49 c87 -111 336 -28 336 112 l0 80 -50 -33 c-101 -66 -110 -40 -110 324 0 383 -20 447 -164 528 -103 58 -294 71 -408 29z m340 -871 c-90 -100 -250 -86 -304 27 -43 91 1 153 176 241 l150 76 6 -153 c5 -121 -1 -162 -28 -191z"></path> <path d="M1764 3275 c6 -358 12 -416 49 -497 100 -219 383 -265 579 -94 l68 60 0 -72 0 -72 110 0 110 0 0 540 0 540 -110 0 -110 0 0 -386 c0 -466 -34 -534 -269 -534 -188 0 -211 60 -211 539 l0 381 -112 0 -112 0 8 -405z"></path> <path d="M2844 3665 c3 -8 96 -190 206 -405 247 -482 244 -387 31 -829 -100 -207 -181 -380 -181 -384 0 -35 239 -2 250 34 8 23 179 393 380 821 l367 780 -120 -6 -120 -6 -132 -295 c-72 -162 -137 -295 -143 -294 -7 0 -77 135 -156 300 l-144 299 -123 0 c-67 0 -119 -7 -115 -15z"></path> <path d="M1780 1460 l0 -140 99 0 c54 0 104 9 111 20 8 12 -24 20 -82 20 l-94 0 13 120 c10 98 7 120 -17 120 -24 0 -30 -30 -30 -140z"></path> <path d="M2040 1460 l0 -141 140 3 c130 3 141 7 152 51 17 67 142 69 152 2 3 -24 21 -47 39 -51 35 -6 -19 220 -62 263 -48 48 -108 2 -149 -117 l-42 -120 -95 6 c-122 8 -146 84 -26 84 38 0 74 9 81 20 7 12 -20 20 -69 20 -68 0 -81 7 -81 40 0 33 13 40 80 40 44 0 80 9 80 20 0 11 -45 20 -100 20 l-100 0 0 -140z m400 82 c0 -10 5 -33 12 -50 9 -24 -1 -32 -40 -32 -53 0 -61 13 -40 68 13 34 68 45 68 14z"></path> <path d="M2620 1460 c0 -105 7 -140 27 -140 18 0 24 16 18 50 -8 42 -2 50 39 50 33 0 57 -16 72 -50 13 -27 32 -50 44 -50 26 0 25 13 -2 63 -16 30 -15 56 3 99 34 82 -1 118 -113 118 l-88 0 0 -140z m160 50 c0 -42 -9 -50 -60 -50 -51 0 -60 8 -60 50 0 42 9 50 60 50 51 0 60 -8 60 -50z"></path> <path d="M2900 1460 c0 -174 36 -186 45 -15 l6 125 58 -125 c87 -189 151 -183 151 15 0 174 -36 186 -44 15 l-6 -125 -58 125 c-87 190 -152 183 -152 -15z"></path> <path d="M3340 1460 c0 -111 6 -140 30 -140 20 0 30 20 30 60 0 53 7 60 59 60 32 0 64 9 71 20 7 12 -21 20 -71 20 -68 0 -81 6 -71 32 7 17 12 35 12 40 0 4 32 8 70 8 39 0 70 9 70 20 0 11 -45 20 -100 20 l-100 0 0 -140z"></path> <path d="M3598 1567 c-109 -131 54 -320 191 -220 43 31 51 175 11 223 -34 41 -167 39 -202 -3z m174 -57 c24 -97 -6 -153 -78 -146 -59 5 -65 12 -70 84 -10 116 121 170 148 62z"></path> <path d="M3900 1461 c0 -106 7 -141 27 -141 18 0 24 16 18 50 -8 42 -2 50 39 50 33 0 57 -16 72 -50 39 -85 78 -68 44 19 -14 37 -12 64 5 92 40 64 -3 108 -112 115 l-93 6 0 -141z m160 49 c0 -42 -9 -50 -60 -50 -51 0 -60 8 -60 50 0 42 9 50 60 50 51 0 60 -8 60 -50z"></path> <path d="M4280 1460 c0 -111 6 -140 30 -140 20 0 30 20 30 60 0 53 7 60 59 60 32 0 64 9 71 20 7 12 -21 20 -71 20 -68 0 -81 6 -71 32 7 17 12 35 12 40 0 4 32 8 70 8 39 0 70 9 70 20 0 11 -45 20 -100 20 l-100 0 0 -140z"></path> <path d="M4540 1484 c0 -135 21 -164 120 -164 99 0 120 29 120 164 0 90 -7 116 -30 116 -23 0 -30 -27 -30 -120 0 -120 0 -120 -60 -120 -69 0 -92 55 -74 171 9 52 4 69 -17 69 -22 0 -29 -28 -29 -116z"></path> <path d="M4820 1580 c0 -11 23 -20 50 -20 48 0 50 -5 50 -120 0 -93 7 -120 30 -120 23 0 30 27 30 120 0 105 5 120 39 120 21 0 44 9 51 20 8 13 -36 20 -119 20 -74 0 -131 -9 -131 -20z"></path> <path d="M5100 1484 c0 -135 21 -164 120 -164 99 0 120 29 120 164 0 90 -7 116 -30 116 -23 0 -30 -27 -30 -120 0 -120 0 -120 -60 -120 -68 0 -90 50 -76 170 5 48 0 70 -18 70 -18 0 -26 -34 -26 -116z"></path> <path d="M5420 1461 c0 -106 7 -141 27 -141 18 0 24 16 18 50 -8 42 -2 50 39 50 33 0 57 -16 72 -50 39 -85 78 -68 44 19 -14 37 -12 64 5 92 40 64 -3 108 -112 115 l-93 6 0 -141z m160 49 c0 -42 -9 -50 -60 -50 -51 0 -60 8 -60 50 0 42 9 50 60 50 51 0 60 -8 60 -50z"></path> <path d="M5720 1460 l0 -140 99 0 c54 0 104 9 111 20 8 12 -23 20 -79 20 -78 0 -91 6 -91 40 0 32 13 40 69 40 38 0 74 9 81 20 7 12 -20 20 -69 20 -68 0 -81 7 -81 40 0 33 13 40 80 40 44 0 80 9 80 20 0 11 -45 20 -100 20 l-100 0 0 -140z"></path> <path d="M0 1460 c0 -13 283 -20 810 -20 527 0 810 7 810 20 0 13 -283 20 -810 20 -527 0 -810 -7 -810 -20z"></path> <path d="M6060 1460 c0 -13 283 -20 810 -20 527 0 810 7 810 20 0 13 -283 20 -810 20 -527 0 -810 -7 -810 -20z"></path> </g> </svg> 